<?xml version="1.0" encoding="UTF-8"?> <svg xmlns="http://www.w3.org/2000/svg" width="200" height="50" viewBox="0 0 200 50" fill="none"><path d="M165.04 42.0516V18.1234H151.805V13.5625H184.401V18.125H171.11V42.0531H165.04V42.0516ZM143.442 42.0516V13.5625H149.514V42.0531H143.442V42.0516Z" fill="#05924A"></path><path d="M12.5984 42.0423C9.87748 42.0423 8.02897 41.5813 7.10548 40.672C6.18355 39.7657 5.71484 38.0173 5.71484 35.4735V34.9392L10.9943 33.8345V37.2048H32.0241V29.9126H13.7168C11.0144 29.9126 9.17984 29.4532 8.26564 28.5454C7.35144 27.6392 6.88738 25.8892 6.88738 23.3454V20.122C6.88738 17.5767 7.35144 15.8282 8.26409 14.922C9.17984 14.0142 11.0144 13.5532 13.7153 13.5532H30.0905C32.7063 13.5532 34.5207 13.997 35.4845 14.8751C36.4373 15.7454 36.92 17.3438 36.92 19.6235V19.9735L31.6405 21.2282V18.0063H12.1127V24.9126H30.4184C33.1394 24.9126 34.9864 25.3735 35.9114 26.2813C36.8333 27.1876 37.302 28.936 37.302 31.4782V35.4751C37.302 38.0188 36.8349 39.7673 35.9114 40.6735C34.9864 41.5829 33.1394 42.0438 30.4184 42.0438H12.5984V42.0423Z" fill="#0970B8"></path><path d="M77.391 42.0421C75.0846 42.0421 73.5177 41.6718 72.7365 40.9437C71.9646 40.2203 71.5732 38.7984 71.5732 36.7156V24.1171C71.5732 22.0546 71.9646 20.6406 72.738 19.9171C73.5208 19.1875 75.0862 18.8171 77.3926 18.8171H94.5041C96.7935 18.8171 98.3574 19.1796 99.1478 19.8937C99.9275 20.5984 100.323 21.9265 100.323 23.8406V24.2015L95.3178 25.0562V22.5515H76.6872V38.1156H95.3147V32.3937H85.9251V28.7968H100.32V36.7156C100.32 38.7984 99.9275 40.2203 99.154 40.9437C98.3729 41.6718 96.8059 42.0421 94.501 42.0421H77.391Z" fill="#0970B8"></path><path d="M103.351 42.0422V18.8157H128.062V22.3844H108.522V28.2454H119.902V31.7032H108.522V38.2235H128.36V42.0422H103.351Z" fill="#0970B8"></path><path d="M46.7271 25.8532L47.8176 23.9142L47.7959 23.9032L50.2694 19.5313L50.4674 19.2001L54.3238 12.3423L59.3805 21.147L59.512 21.3954L60.0472 22.3251L60.0549 22.3204L61.8617 25.461L58.474 28.3173L54.364 21.1642L50.3081 28.3782L46.7271 25.8532Z" fill="#05924A"></path><path d="M45.9059 27.3172L49.4575 29.8891L45.5207 36.8937L54.4802 33.975L55.8477 34.4156L63.384 36.8609L59.2446 29.6547L62.6199 26.7812L72.9112 44.6922L54.4833 38.7156L36.1343 44.6953L45.9059 27.3172Z" fill="#0970B8"></path><path d="M191.224 12.2282C189.304 12.2282 187.742 10.6501 187.742 8.71103C187.742 6.77197 189.304 5.19385 191.224 5.19385C193.143 5.19385 194.706 6.77197 194.706 8.71103C194.706 10.6501 193.143 12.2282 191.224 12.2282ZM191.224 5.67978C189.57 5.67978 188.224 7.03916 188.224 8.70947C188.224 10.3798 189.57 11.7392 191.224 11.7392C192.877 11.7392 194.223 10.3798 194.223 8.70947C194.223 7.03916 192.877 5.67978 191.224 5.67978Z" fill="#1A8E53"></path><path d="M190.304 6.77192C190.559 6.7188 190.922 6.69067 191.271 6.69067C191.809 6.69067 192.155 6.79067 192.4 7.01255C192.596 7.18755 192.706 7.4563 192.706 7.76099C192.706 8.2813 192.381 8.62661 191.971 8.76567V8.78286C192.273 8.88755 192.452 9.1688 192.545 9.57817C192.672 10.1282 192.765 10.5079 192.845 10.6594H192.324C192.26 10.5485 192.174 10.2094 192.064 9.7188C191.948 9.17505 191.741 8.97036 191.283 8.95317H190.808V10.6594H190.305V6.77192H190.304ZM190.808 8.56567H191.323C191.861 8.56567 192.203 8.26724 192.203 7.81724C192.203 7.30942 191.838 7.08599 191.306 7.0813C191.063 7.0813 190.89 7.10474 190.808 7.12817V8.56567Z" fill="#05924A"></path></svg> 